PathFileType	4	(X/Y/Z)	/Users/niels/Desktop/University/Third Semester/Perception and Action/Exam/Gymnastics Motion Tracking/Code for Gym Tracking/Analyzed Data/Webcam_Backflip/id1_2_trajectory_Sports2D/id1_2_trajectory_Sports2D_px_person00.trc
DataRate	CameraRate	NumFrames	NumMarkers	Units	OrigDataRate	OrigDataStartFrame	OrigNumFrames
29.92822966507177	29.92822966507177	12	22	m	29.92822966507177	261	418
Frame#	Time	Hip			RHip			RKnee			RAnkle			RBigToe			RSmallToe			RHeel			LHip			LKnee			LAnkle			LBigToe			LSmallToe			LHeel			Neck			Head			Nose			RShoulder			RElbow			RWrist			LShoulder			LElbow			LWrist		
		X1	Y1	Z1	X2	Y2	Z2	X3	Y3	Z3	X4	Y4	Z4	X5	Y5	Z5	X6	Y6	Z6	X7	Y7	Z7	X8	Y8	Z8	X9	Y9	Z9	X10	Y10	Z10	X11	Y11	Z11	X12	Y12	Z12	X13	Y13	Z13	X14	Y14	Z14	X15	Y15	Z15	X16	Y16	Z16	X17	Y17	Z17	X18	Y18	Z18	X19	Y19	Z19	X20	Y20	Z20	X21	Y21	Z21	X22	Y22	Z22
261	8.720863309352518	0.98265568799158	-0.5885053396785314	0.0	0.9289427764233446	-0.5894583093710902	0.0	0.824274207763304	-0.7506882089621529	0.0	0.8627120581400853	-0.9752831897519184	0.0	0.8338536063023276	-1.0276966314405855	0.0	0.8227288261554899	-1.0208155242310828	0.0	0.8860285612171894	-0.9913075307702848	0.0	1.0292456404652928	-0.6072112162313996	0.0	1.025135276538232	-0.8482223974334192	0.0	1.0474403338349951	-1.0727232125483523	0.0	1.0150240208113932	-1.0832385407542546	0.0	1.052326941271948	-1.0925854358062126	0.0	1.0593353128043654	-1.0876942091969446	0.0	1.059003060828452	-0.24295021003008616	0.0	1.0756783206439928	-0.09775134681167819	0.0	1.055395460608176	-0.1740879088183258	0.0	0.9512925406794741	-0.295968112002075	0.0	0.8932529745518398	-0.43044657231514966	0.0	0.8956148659333609	-0.5053289792775976	0.0	1.1546607232296153	-0.32923253699567373	0.0	1.1693319645286804	-0.5073737778135697	0.0	1.1321653310122124	-0.6392002659218666	0.0
262	8.75427657873701	0.9832479539936259	-0.5923165205481795	0.0	0.9275398570800917	-0.5942515682103087	0.0	0.8446584396136863	-0.7787404303027696	0.0	0.8793855939799433	-1.0041232716796933	0.0	0.8556510825315254	-1.0449005988345623	0.0	0.8399655337179627	-1.039185385376632	0.0	0.9006654534458165	-1.017300683628862	0.0	1.0328506567653988	-0.6104955643039898	0.0	1.0281273338567898	-0.8494550981696527	0.0	1.0477367551329242	-1.0716661199622386	0.0	1.021067036408695	-1.0827745972977556	0.0	1.0569270555766999	-1.09012565937878	0.0	1.0562705832470591	-1.0858995752966025	0.0	1.0578070132143456	-0.24290865678115273	0.0	1.0764335811017847	-0.09884818237593822	0.0	1.0586234315374972	-0.17495316333067487	0.0	0.944812675492453	-0.2967465116223152	0.0	0.8885027483911935	-0.4351398462001298	0.0	0.9002468287701045	-0.5138469310541457	0.0	1.155642743253255	-0.3291649067541984	0.0	1.171218874537279	-0.5046637550789129	0.0	1.1377721915413301	-0.6372304418885869	0.0
263	8.787689848121502	0.9854145602238485	-0.5966064106036003	0.0	0.9278831051886344	-0.5997964724750476	0.0	0.8671433427091719	-0.805132328072805	0.0	0.8955706542312384	-1.0303405061063409	0.0	0.8776774230745921	-1.0610658414463563	0.0	0.8575644134673179	-1.0565278327174548	0.0	0.9144137693583466	-1.0412056299171772	0.0	1.0373834389809367	-0.6141072097705329	0.0	1.031240857596909	-0.8505683613207021	0.0	1.0476097325269356	-1.0696385794826686	0.0	1.0258839086052394	-1.0820684406259575	0.0	1.0604965210241581	-1.0873276739389963	0.0	1.0527293778586286	-1.0831937771109748	0.0	1.0558133769635394	-0.24338568500047064	0.0	1.076639497249779	-0.10014903321630055	0.0	1.0611769443625	-0.1760490891153121	0.0	0.9378921820897446	-0.29822382505740846	0.0	0.8838392744926161	-0.4419088311060773	0.0	0.9051327531878914	-0.5243333046107691	0.0	1.1556230503421054	-0.3288336082755934	0.0	1.1719143022309588	-0.5012553589866928	0.0	1.1418783011327478	-0.6344496503350551	0.0
264	8.821103117505995	0.9890839230193051	-0.6005634181508723	0.0	0.9299684463701152	-0.6050639789513866	0.0	0.8878472598690449	-0.8260245813622332	0.0	0.9094342696896368	-1.0500763480505482	0.0	0.8975498385622717	-1.0742928917721564	0.0	0.873732100368565	-1.0705946682515952	0.0	0.9256315907299766	-1.0594632359965959	0.0	1.0426788855694844	-0.6172590422044627	0.0	1.034638821048657	-0.8513424998049476	0.0	1.0472742575618255	-1.0669533114200345	0.0	1.0295316163354438	-1.0818125148626225	0.0	1.06327257973512	-1.0850557105204548	0.0	1.0491440199152318	-1.0801392992903807	0.0	1.0530583215281184	-0.24441877915254046	0.0	1.0761027704138213	-0.10176116742348633	0.0	1.0628084110214364	-0.17747782845095056	0.0	0.931240982364979	-0.3002862843099871	0.0	0.8796193698549263	-0.450013900213421	0.0	0.9101648808083364	-0.5362314369765308	0.0	1.1543659924202987	-0.32835889996583906	0.0	1.1713196186822377	-0.49740052780528965	0.0	1.1446309169221578	-0.6307086286435937	0.0
265	8.854516386890488	0.9937933780308424	-0.6037611464977859	0.0	0.9334478522321431	-0.6094475492691135	0.0	0.904747804507326	-0.8401897092253051	0.0	0.9206181501588795	-1.0620566940809444	0.0	0.9140262008774234	-1.08356272202431	0.0	0.8877214522552125	-1.0799529931657492	0.0	0.9343210720354342	-1.0706880425763052	0.0	1.048369407854722	-0.6194998885039412	0.0	1.0384601355253962	-0.8517320289247848	0.0	1.0470258104763428	-1.0639890616590544	0.0	1.032299898221022	-1.0824750248262796	0.0	1.065535374945895	-1.0837791325510335	0.0	1.0459789564092432	-1.0771574848075751	0.0	1.0496551954820836	-0.2459402230231778	0.0	1.0746635533327298	-0.10365531521250577	0.0	1.0633885729940125	-0.17929027489834823	0.0	0.9254594550025559	-0.30280371086447166	0.0	0.8761866932732489	-0.45855283415547604	0.0	0.9152806113440957	-0.5490410041555802	0.0	1.1518091680275393	-0.32774745434982755	0.0	1.169430372336985	-0.4933286028785568	0.0	1.1462581239546068	-0.6258627477908157	0.0
266	8.88792965627498	0.9989141656314476	-0.6063352801557127	0.0	0.9377922808962735	-0.6130397486052589	0.0	0.9175328284046637	-0.8485484456751061	0.0	0.9294345681249743	-1.0671372647902122	0.0	0.9266684430863853	-1.0890341140968598	0.0	0.8991616884709	-1.0845927807948448	0.0	0.9411247401009097	-1.0755612903394225	0.0	1.053989364882431	-0.6210064309349201	0.0	1.0427685464680099	-0.8518928634479089	0.0	1.0471211298193215	-1.0610404011567238	0.0	1.0348403907085681	-1.0840789636375259	0.0	1.067648454423188	-1.0834693454350877	0.0	1.0435641837415948	-1.0744371007911937	0.0	1.0458016570016584	-0.24781848075184987	0.0	1.072278678220203	-0.10560118043278034	0.0	1.0630013814669492	-0.18143294930625467	0.0	0.9208168632548109	-0.3056950177545444	0.0	0.873832189675701	-0.46689588778571284	0.0	0.9204269575310152	-0.5624538124876884	0.0	1.1480929851615516	-0.32691469679430224	0.0	1.1663196524547947	-0.4891038950885928	0.0	1.1469724800923167	-0.6198815633087995	0.0
267	8.921342925659472	1.0039059567961253	-0.6086976171734952	0.0	0.9424823842388399	-0.6163494801565501	0.0	0.9268582837518988	-0.8529440242398287	0.0	0.9362845426767257	-1.067354407026154	0.0	0.9356035397893221	-1.0917856423546708	0.0	0.907812138497088	-1.0858007111145038	0.0	0.9465728581721502	-1.076054485060478	0.0	1.0591321198163564	-0.6223005139942688	0.0	1.0474701857419926	-0.8520836976783771	0.0	1.0477112840702694	-1.0583713336245857	0.0	1.0382982613970881	-1.086264648546377	0.0	1.0702958442871855	-1.083798759231364	0.0	1.0420376568948675	-1.0721016319541015	0.0	1.041722190813733	-0.24988629131038775	0.0	1.068999598045118	-0.107257236776512	0.0	1.0620043905181984	-0.18378913572527605	0.0	0.917325915922086	-0.30891810358104316	0.0	0.8728079290687254	-0.4747740309934292	0.0	0.925452154173199	-0.5762389813306992	0.0	1.1434618575175548	-0.3257734650093855	0.0	1.1621063552362716	-0.4847132873145303	0.0	1.1469172736339404	-0.6129131757233178	0.0
268	8.954756195043965	1.0083958642174005	-0.6111185310260644	0.0	0.9470879525932362	-0.6197988337808016	0.0	0.9335793021348091	-0.8551435034643824	0.0	0.9414229003776678	-1.0650371439372481	0.0	0.9414520647172618	-1.093066249012686	0.0	0.9138240474919889	-1.0853047478070326	0.0	0.9507940214767376	-1.0744231951187282	0.0	1.0634874163002792	-0.6237945985692616	0.0	1.0522701239293524	-0.8524373155526221	0.0	1.0487833152658	-1.0561402220940164	0.0	1.044237140962153	-1.0884550897218637	0.0	1.074458936132992	-1.0842475767048643	0.0	1.04126001253296	-1.0702322202077332	0.0	1.0376440067556978	-0.251989888270072	0.0	1.0650093534784428	-0.10838206254525248	0.0	1.0609003232567575	-0.1862285242265821	0.0	0.9150021653295378	-0.31238610046254744	0.0	0.8733110611786842	-0.48203269646163516	0.0	0.9301231985878051	-0.5900074512704029	0.0	1.1381755557826152	-0.3242784630656297	0.0	1.1569476581653335	-0.480221022050975	0.0	1.146172104712612	-0.6052651804141669	0.0
269	8.988169464428458	1.0121914762128443	-0.6135276183695663	0.0	0.9513564436510044	-0.6233936336713657	0.0	0.9383071875800318	-0.85628875382237	0.0	0.944923405480943	-1.0621494431523633	0.0	0.9452606633997674	-1.0936191158631168	0.0	0.9178776320589335	-1.084384096302507	0.0	0.9535782145543916	-1.072451809131842	0.0	1.0668328534405551	-0.6255545254515099	0.0	1.0567695720105148	-0.852719519045769	0.0	1.0501710434999265	-1.0542601618654879	0.0	1.0541651140104062	-1.0900184717468828	0.0	1.0810229271370118	-1.0841957203776535	0.0	1.040844199061775	-1.0688030427682573	0.0	1.0338254005401435	-0.2539822062501965	0.0	1.0606372529952832	-0.10894888262995397	0.0	1.0600804996591346	-0.18856661708808087	0.0	0.9140000975061507	-0.31594329438526436	0.0	0.8754438460679075	-0.4884009157950729	0.0	0.9342743608908939	-0.6031628721024243	0.0	1.132498066893914	-0.3224295482513869	0.0	1.1510889932333512	-0.47579163433660204	0.0	1.1447627478459823	-0.5973780476271151	0.0
270	9.021582733812949	1.0152984661441722	-0.6156823535400578	0.0	0.9552492952363922	-0.6268336452633709	0.0	0.9413908607526452	-0.856941247632399	0.0	0.9467504771138054	-1.0599607605899453	0.0	0.9481802126057115	-1.0935799148216696	0.0	0.9208672303680508	-1.0835896486090382	0.0	0.9546078637088942	-1.0712005838215715	0.0	1.069071095488005	-0.6274348448482587	0.0	1.0606246705993012	-0.8525586723232543	0.0	1.051644678184274	-1.0525491236729885	0.0	1.0686194236330673	-1.0904940309660347	0.0	1.090173326102692	-1.0831934924491977	0.0	1.0404082313767486	-1.0677346269777703	0.0	1.0305236492734982	-0.2557375068036624	0.0	1.0562756069379933	-0.10907879707727322	0.0	1.059724244758436	-0.190557792224115	0.0	0.9145573514186897	-0.31939405192388964	0.0	0.879218259505678	-0.4935732074637009	0.0	0.9379050269941768	-0.6150805022065993	0.0	1.1266564437763353	-0.32032347945127976	0.0	1.1448781810255875	-0.471660816076079	0.0	1.1427024063114881	-0.5898417481655595	0.0
271	9.054996003197441	1.0178988297096918	-0.6174746779443594	0.0	0.9589238354189001	-0.6298755936861699	0.0	0.9432026619142676	-0.8575479102715714	0.0	0.9469031100108922	-1.0590735779613873	0.0	0.9510067323775884	-1.092804816385512	0.0	0.9234759693120634	-1.0829563133525113	0.0	0.9537000139108017	-1.0710982222583858	0.0	1.0702662035158979	-0.6293597855931056	0.0	1.0636108629241379	-0.8520414975706332	0.0	1.052991895426463	-1.0511520240368715	0.0	1.086431195210311	-1.0897943936183212	0.0	1.1009953497046063	-1.081213168971146	0.0	1.039805560864659	-1.067069524076602	0.0	1.0279076252606267	-0.2572098709128111	0.0	1.052297612095233	-0.10894850628993671	0.0	1.0599188910954571	-0.1920129961138773	0.0	0.916891852326078	-0.32252177897105916	0.0	0.8846023761419712	-0.49748642808973637	0.0	0.9411542072620724	-0.6253557033930456	0.0	1.120736694135745	-0.3182117420500627	0.0	1.1385767692947917	-0.4681275816097978	0.0	1.1400931203989286	-0.5833300275856367	0.0
272	9.088409272581934	1.0203210022661144	-0.6189726353755831	0.0	0.9628029665566861	-0.6324474713886975	0.0	0.9445146919951557	-0.8585650189549433	0.0	0.945496911991417	-1.0595355171801286	0.0	0.9540271081392081	-1.0911653976024096	0.0	0.9260716108175037	-1.082310966611479	0.0	0.9508358247450057	-1.0720868390184362	0.0	1.0706458509325114	-0.6313058754430838	0.0	1.0656008824758736	-0.851776828827531	0.0	1.0540750673465207	-1.0505822919237116	0.0	1.1050097908388061	-1.0881952487354694	0.0	1.1118076478962253	-1.0786066936618606	0.0	1.0391212841641135	-1.06698803338853	0.0	1.02606134150415	-0.25841416895811475	0.0	1.0490203199169101	-0.10877876898199644	0.0	1.060751859572986	-0.19290935199443376	0.0	0.9211756997210526	-0.3250984999350683	0.0	0.8915765671435133	-0.5003754703559425	0.0	0.9442614072140889	-0.6339532646928091	0.0	1.1146183533498426	-0.31648167777761577	0.0	1.1320046776427863	-0.46554654954183655	0.0	1.1372020298600751	-0.5784006734497462	0.0
